<mxfile host="Electron" modified="2024-10-23T13:13:48.764Z" agent="Mozilla/5.0 (Windows NT 10.0; Win64; x64) AppleWebKit/537.36 (KHTML, like Gecko) draw.io/21.3.7 Chrome/112.0.5615.204 Electron/24.5.0 Safari/537.36" etag="uLc3iyTbDnK0IZUuk5L3" version="21.3.7" type="device">
  <diagram name="Page-1" id="Ha8s6_4_4nTsxysomdbX">
    <mxGraphModel dx="-120" dy="340" grid="1" gridSize="10" guides="1" tooltips="1" connect="1" arrows="1" fold="1" page="0" pageScale="1" pageWidth="827" pageHeight="1169" math="0" shadow="0">
      <root>
        <mxCell id="0" />
        <mxCell id="1" parent="0" />
        <mxCell id="3DvRBVC2DGd47bIpJUiL-1" value="Client servers" style="rounded=1;whiteSpace=wrap;html=1;strokeColor=#7C8A9A;strokeWidth=1;fontColor=#212121;fillColor=none;dashed=1;fontFamily=VK Sans Display;verticalAlign=top;spacing=10;fontStyle=1;arcSize=12;absoluteArcSize=1;" parent="1" vertex="1">
          <mxGeometry x="1654" y="38" width="206" height="312" as="geometry" />
        </mxCell>
        <mxCell id="DVAWxs5dTwqKmr02NpXk-5" value="App Server" style="rounded=1;whiteSpace=wrap;html=1;fontFamily=VK Sans Display;strokeColor=none;arcsize=12;fillColor=#F6F7F9;spacing=10;verticalAlign=top;spacingTop=0;spacingLeft=0;spacingRight=0;fontStyle=1;arcSize=12;absoluteArcSize=1;" vertex="1" parent="1">
          <mxGeometry x="1680" y="92.75" width="160" height="113.25" as="geometry" />
        </mxCell>
        <mxCell id="DVAWxs5dTwqKmr02NpXk-6" value="Filebeat agent" style="rounded=1;whiteSpace=wrap;html=1;fontFamily=VK Sans Display;strokeColor=none;arcsize=12;fillColor=default;spacing=0;spacingTop=12;spacingBottom=12;arcSize=12;absoluteArcSize=1;" vertex="1" parent="1">
          <mxGeometry x="1700" y="150.25" width="120" height="40" as="geometry" />
        </mxCell>
        <mxCell id="DVAWxs5dTwqKmr02NpXk-7" value="BD Server" style="rounded=1;whiteSpace=wrap;html=1;fontFamily=VK Sans Display;strokeColor=none;arcsize=12;fillColor=#F6F7F9;spacing=10;verticalAlign=top;spacingTop=0;spacingLeft=0;spacingRight=0;fontStyle=1;arcSize=12;absoluteArcSize=1;" vertex="1" parent="1">
          <mxGeometry x="1680" y="217.75" width="160" height="113.25" as="geometry" />
        </mxCell>
        <mxCell id="DVAWxs5dTwqKmr02NpXk-8" value="Filebeat agent" style="rounded=1;whiteSpace=wrap;html=1;fontFamily=VK Sans Display;strokeColor=none;arcsize=12;fillColor=default;spacing=0;spacingTop=12;spacingBottom=12;arcSize=12;absoluteArcSize=1;" vertex="1" parent="1">
          <mxGeometry x="1700" y="275.25" width="120" height="40" as="geometry" />
        </mxCell>
        <mxCell id="DVAWxs5dTwqKmr02NpXk-2" value="ELK Stack / Logstash Server" style="rounded=1;whiteSpace=wrap;html=1;fontFamily=VK Sans Display;strokeColor=none;arcsize=12;fillColor=#F6F7F9;spacing=10;verticalAlign=top;spacingTop=0;spacingLeft=0;spacingRight=0;fontStyle=1;arcSize=12;absoluteArcSize=1;" vertex="1" parent="1">
          <mxGeometry x="1020" y="157.5" width="580" height="122.5" as="geometry" />
        </mxCell>
        <mxCell id="1QgtEBpJykwxdKEODN1W-29" style="edgeStyle=orthogonalEdgeStyle;shape=connector;rounded=0;hachureGap=4;orthogonalLoop=1;jettySize=auto;html=1;exitX=0;exitY=0.5;exitDx=0;exitDy=0;entryX=1;entryY=0.5;entryDx=0;entryDy=0;labelBackgroundColor=default;strokeColor=#7C8A9A;strokeWidth=2;align=center;verticalAlign=middle;fontFamily=VK Sans Display;fontSize=11;fontColor=#212121;startArrow=none;startFill=0;endArrow=open;endFill=0;" parent="1" source="1QgtEBpJykwxdKEODN1W-7" target="1QgtEBpJykwxdKEODN1W-19" edge="1">
          <mxGeometry relative="1" as="geometry" />
        </mxCell>
        <mxCell id="1QgtEBpJykwxdKEODN1W-7" value="&lt;font color=&quot;#212121&quot;&gt;Nginx&lt;/font&gt;" style="rounded=1;whiteSpace=wrap;html=1;fontFamily=VK Sans Display;strokeColor=none;arcsize=12;fillColor=default;spacing=0;spacingTop=12;spacingBottom=12;arcSize=12;absoluteArcSize=1;" parent="1" vertex="1">
          <mxGeometry x="1040" y="215" width="120" height="40" as="geometry" />
        </mxCell>
        <mxCell id="1QgtEBpJykwxdKEODN1W-27" style="edgeStyle=orthogonalEdgeStyle;shape=connector;rounded=0;hachureGap=4;orthogonalLoop=1;jettySize=auto;html=1;exitX=0;exitY=0.5;exitDx=0;exitDy=0;entryX=1;entryY=0.5;entryDx=0;entryDy=0;labelBackgroundColor=default;strokeColor=#7C8A9A;strokeWidth=2;align=center;verticalAlign=middle;fontFamily=VK Sans Display;fontSize=11;fontColor=#212121;startArrow=none;startFill=0;endArrow=open;endFill=0;" parent="1" source="1QgtEBpJykwxdKEODN1W-9" target="1QgtEBpJykwxdKEODN1W-8" edge="1">
          <mxGeometry relative="1" as="geometry" />
        </mxCell>
        <mxCell id="1QgtEBpJykwxdKEODN1W-9" value="&lt;font color=&quot;#212121&quot;&gt;ElasticSearch&lt;/font&gt;" style="rounded=1;whiteSpace=wrap;html=1;fontFamily=VK Sans Display;strokeColor=none;arcsize=12;fillColor=default;spacing=0;spacingTop=12;spacingBottom=12;arcSize=12;absoluteArcSize=1;" parent="1" vertex="1">
          <mxGeometry x="1320" y="215" width="120" height="40" as="geometry" />
        </mxCell>
        <mxCell id="1QgtEBpJykwxdKEODN1W-26" style="edgeStyle=orthogonalEdgeStyle;shape=connector;rounded=0;hachureGap=4;orthogonalLoop=1;jettySize=auto;html=1;exitX=0;exitY=0.5;exitDx=0;exitDy=0;entryX=1;entryY=0.5;entryDx=0;entryDy=0;labelBackgroundColor=default;strokeColor=#7C8A9A;strokeWidth=2;align=center;verticalAlign=middle;fontFamily=VK Sans Display;fontSize=11;fontColor=#212121;startArrow=none;startFill=0;endArrow=open;endFill=0;" parent="1" source="1QgtEBpJykwxdKEODN1W-10" target="1QgtEBpJykwxdKEODN1W-9" edge="1">
          <mxGeometry relative="1" as="geometry" />
        </mxCell>
        <mxCell id="1QgtEBpJykwxdKEODN1W-10" value="&lt;font color=&quot;#212121&quot;&gt;Logstash&lt;/font&gt;" style="rounded=1;whiteSpace=wrap;html=1;fontFamily=VK Sans Display;strokeColor=none;arcsize=12;fillColor=default;spacing=0;spacingTop=12;spacingBottom=12;arcSize=12;absoluteArcSize=1;" parent="1" vertex="1">
          <mxGeometry x="1460" y="215" width="120" height="40" as="geometry" />
        </mxCell>
        <mxCell id="1QgtEBpJykwxdKEODN1W-19" value="User" style="shape=image;verticalLabelPosition=bottom;labelBackgroundColor=default;verticalAlign=top;aspect=fixed;imageAspect=0;image=data:image/svg+xml,PHN2ZyB4bWxucz0iaHR0cDovL3d3dy53My5vcmcvMjAwMC9zdmciIGZpbGw9Im5vbmUiIHZpZXdCb3g9IjAgMCAyOCAyOCIgaGVpZ2h0PSIyOCIgd2lkdGg9IjI4Ij4mI3hhOzxwYXRoIGZpbGw9IiMyNjg4RUIiIGQ9Ik0xNy41IDguNUMxNy41IDYuNTY2MDMgMTUuOTM0IDUgMTQgNUMxMi4wNjYgNSAxMC41IDYuNTY2MDMgMTAuNSA4LjVDMTAuNSAxMC40MzQgMTIuMDY2IDEyIDE0IDEyQzE1LjkzNCAxMiAxNy41IDEwLjQzNCAxNy41IDguNVpNMTkuNSA4LjVDMTkuNSAxMS41Mzg1IDE3LjAzODUgMTQgMTQgMTRDMTAuOTYxNSAxNCA4LjUgMTEuNTM4NSA4LjUgOC41QzguNSA1LjQ2MTQ3IDEwLjk2MTUgMyAxNCAzQzE3LjAzODUgMyAxOS41IDUuNDYxNDcgMTkuNSA4LjVaTTcgMjAuNjQyOUM3IDIxLjU4NjIgNi45MTk4NyAyMS41IDcuNDU1ODggMjEuNUgyMS4wNDQxQzIxLjU4MDEgMjEuNSAyMS41IDIxLjU4NjIgMjEuNSAyMC42NDI5QzIxLjUgMTguMzU0NyAxOC4xOTYgMTcgMTQuMjUgMTdDMTAuMzA0IDE3IDcgMTguMzU0NyA3IDIwLjY0MjlaTTUgMjAuNjQyOUM1IDE2Ljc2MjYgOS4yOTg5MiAxNSAxNC4yNSAxNUMxOS4yMDExIDE1IDIzLjUgMTYuNzYyNiAyMy41IDIwLjY0MjlDMjMuNSAyMi42NTkzIDIyLjcxODkgMjMuNSAyMS4wNDQxIDIzLjVINy40NTU4OEM1Ljc4MTExIDIzLjUgNSAyMi42NTkzIDUgMjAuNjQyOVoiLz4mI3hhOzwvc3ZnPg==;fontFamily=VK Sans Display;spacing=-7;fontColor=#212121;" parent="1" vertex="1">
          <mxGeometry x="940" y="207" width="56" height="56" as="geometry" />
        </mxCell>
        <mxCell id="1QgtEBpJykwxdKEODN1W-28" style="edgeStyle=orthogonalEdgeStyle;shape=connector;rounded=0;hachureGap=4;orthogonalLoop=1;jettySize=auto;html=1;exitX=0;exitY=0.5;exitDx=0;exitDy=0;entryX=1;entryY=0.5;entryDx=0;entryDy=0;labelBackgroundColor=default;strokeColor=#7C8A9A;strokeWidth=2;align=center;verticalAlign=middle;fontFamily=VK Sans Display;fontSize=11;fontColor=#212121;startArrow=none;startFill=0;endArrow=open;endFill=0;" parent="1" source="1QgtEBpJykwxdKEODN1W-8" target="1QgtEBpJykwxdKEODN1W-7" edge="1">
          <mxGeometry relative="1" as="geometry" />
        </mxCell>
        <mxCell id="1QgtEBpJykwxdKEODN1W-8" value="&lt;font color=&quot;#212121&quot;&gt;Kibana&lt;/font&gt;" style="rounded=1;whiteSpace=wrap;html=1;fontFamily=VK Sans Display;strokeColor=none;arcsize=12;fillColor=default;spacing=0;spacingTop=12;spacingBottom=12;arcSize=12;absoluteArcSize=1;" parent="1" vertex="1">
          <mxGeometry x="1180" y="215" width="120" height="40" as="geometry" />
        </mxCell>
        <mxCell id="3DvRBVC2DGd47bIpJUiL-4" value="&lt;span style=&quot;font-size: 12px; font-style: normal; font-variant-ligatures: normal; font-variant-caps: normal; font-weight: 400; letter-spacing: normal; orphans: 2; text-indent: 0px; text-transform: none; widows: 2; word-spacing: 0px; -webkit-text-stroke-width: 0px; text-decoration-thickness: initial; text-decoration-style: initial; text-decoration-color: initial; float: none; display: inline !important;&quot;&gt;Reverse Proxy&lt;/span&gt;" style="text;whiteSpace=wrap;html=1;fontSize=20;fontFamily=VK Sans Display;align=center;labelBackgroundColor=none;fontColor=#7C8A9A;verticalAlign=bottom;" parent="1" vertex="1">
          <mxGeometry x="1045" y="330" width="110" height="50" as="geometry" />
        </mxCell>
        <mxCell id="3DvRBVC2DGd47bIpJUiL-5" value="&lt;span style=&quot;font-size: 12px; font-style: normal; font-variant-ligatures: normal; font-variant-caps: normal; font-weight: 400; letter-spacing: normal; orphans: 2; text-indent: 0px; text-transform: none; widows: 2; word-spacing: 0px; -webkit-text-stroke-width: 0px; text-decoration-thickness: initial; text-decoration-style: initial; text-decoration-color: initial; float: none; display: inline !important;&quot;&gt;Search and Visualize Logs&lt;/span&gt;" style="text;whiteSpace=wrap;html=1;fontSize=20;fontFamily=VK Sans Display;align=center;labelBackgroundColor=none;fontColor=#7C8A9A;spacing=2;verticalAlign=bottom;" parent="1" vertex="1">
          <mxGeometry x="1180" y="330" width="120" height="50" as="geometry" />
        </mxCell>
        <mxCell id="3DvRBVC2DGd47bIpJUiL-6" value="&lt;span style=&quot;font-size: 12px; font-style: normal; font-variant-ligatures: normal; font-variant-caps: normal; font-weight: 400; letter-spacing: normal; orphans: 2; text-indent: 0px; text-transform: none; widows: 2; word-spacing: 0px; -webkit-text-stroke-width: 0px; text-decoration-thickness: initial; text-decoration-style: initial; text-decoration-color: initial; float: none; display: inline !important;&quot;&gt;&lt;font color=&quot;#7c8a9a&quot;&gt;Store Logs&lt;/font&gt;&lt;/span&gt;" style="text;whiteSpace=wrap;html=1;fontSize=20;fontFamily=VK Sans Display;align=center;labelBackgroundColor=none;fontColor=#B3B3B3;spacing=2;verticalAlign=bottom;" parent="1" vertex="1">
          <mxGeometry x="1335" y="330" width="90" height="50" as="geometry" />
        </mxCell>
        <mxCell id="3DvRBVC2DGd47bIpJUiL-7" value="&lt;span style=&quot;font-size: 12px; font-style: normal; font-variant-ligatures: normal; font-variant-caps: normal; font-weight: 400; letter-spacing: normal; orphans: 2; text-indent: 0px; text-transform: none; widows: 2; word-spacing: 0px; -webkit-text-stroke-width: 0px; text-decoration-thickness: initial; text-decoration-style: initial; text-decoration-color: initial; float: none; display: inline !important;&quot;&gt;&lt;font color=&quot;#7c8a9a&quot;&gt;Process and Index Logs&lt;/font&gt;&lt;/span&gt;" style="text;whiteSpace=wrap;html=1;fontSize=20;fontFamily=VK Sans Display;align=center;fontColor=#B3B3B3;labelBackgroundColor=none;spacing=2;verticalAlign=bottom;" parent="1" vertex="1">
          <mxGeometry x="1460" y="330" width="120" height="50" as="geometry" />
        </mxCell>
        <mxCell id="3DvRBVC2DGd47bIpJUiL-13" value="&lt;span style=&quot;font-size: 12px; font-style: normal; font-variant-ligatures: normal; font-variant-caps: normal; font-weight: 400; letter-spacing: normal; orphans: 2; text-indent: 0px; text-transform: none; widows: 2; word-spacing: 0px; -webkit-text-stroke-width: 0px; text-decoration-thickness: initial; text-decoration-style: initial; text-decoration-color: initial; float: none; display: inline !important;&quot;&gt;Ship Logs&lt;/span&gt;" style="text;whiteSpace=wrap;html=1;fontSize=20;fontFamily=VK Sans Display;align=center;labelBackgroundColor=none;fontColor=#7C8A9A;verticalAlign=bottom;" parent="1" vertex="1">
          <mxGeometry x="1700" y="350" width="120" height="30" as="geometry" />
        </mxCell>
        <mxCell id="DVAWxs5dTwqKmr02NpXk-10" value="" style="endArrow=none;html=1;fontFamily=VK Sans Display;fontColor=#212121;rounded=1;strokeColor=#7C8A9A;endFill=0;arcsize=8;startArrow=open;startFill=0;strokeWidth=2;arcSize=8;entryX=0;entryY=0.5;entryDx=0;entryDy=0;exitX=1;exitY=0.5;exitDx=0;exitDy=0;" edge="1" parent="1" source="1QgtEBpJykwxdKEODN1W-10" target="DVAWxs5dTwqKmr02NpXk-6">
          <mxGeometry width="50" height="50" relative="1" as="geometry">
            <mxPoint x="1620" y="120" as="sourcePoint" />
            <mxPoint x="1700" y="170" as="targetPoint" />
            <Array as="points">
              <mxPoint x="1630" y="235" />
              <mxPoint x="1630" y="170" />
            </Array>
          </mxGeometry>
        </mxCell>
        <mxCell id="DVAWxs5dTwqKmr02NpXk-11" value="" style="endArrow=none;html=1;fontFamily=VK Sans Display;fontColor=#212121;rounded=1;strokeColor=#7C8A9A;endFill=0;arcsize=8;startArrow=open;startFill=0;strokeWidth=2;arcSize=8;entryX=0;entryY=0.5;entryDx=0;entryDy=0;exitX=1;exitY=0.5;exitDx=0;exitDy=0;" edge="1" parent="1" source="1QgtEBpJykwxdKEODN1W-10" target="DVAWxs5dTwqKmr02NpXk-8">
          <mxGeometry width="50" height="50" relative="1" as="geometry">
            <mxPoint x="1590" y="245" as="sourcePoint" />
            <mxPoint x="1710" y="186" as="targetPoint" />
            <Array as="points">
              <mxPoint x="1630" y="235" />
              <mxPoint x="1630" y="295" />
            </Array>
          </mxGeometry>
        </mxCell>
      </root>
    </mxGraphModel>
  </diagram>
</mxfile>
